<?xml version="1.0"?>
<svg width="1013" height="1013" xmlns="http://www.w3.org/2000/svg" xmlns:svg="http://www.w3.org/2000/svg" version="1.1">
 <g class="layer">
  <title>Layer 1</title>
  <ellipse cx="514.14" cy="492.71" fill="#3f3f3f" id="svg_68" rx="407.14" ry="405.71" transform="matrix(1 0 0 1 0 0)"/>
  <path d="m506.69,22.69c1.5,-0.01 1.5,-0.01 3.03,-0.01c14.2,-0.03 28.17,0.77 42.28,2.32c1.23,0.14 1.23,0.14 2.49,0.27c5.53,0.61 11.06,1.28 16.58,1.98c0.83,0.11 1.66,0.22 2.51,0.32c80.94,10.49 159.6,43.47 223.42,94.43c0.69,0.55 1.38,1.1 2.1,1.66c7.64,6.08 15.13,12.27 22.28,18.93c1.4,1.29 2.81,2.57 4.25,3.8c6.21,5.3 11.95,11.03 17.7,16.81c1.73,1.74 3.47,3.47 5.21,5.2c5.7,5.69 11.3,11.41 16.46,17.6c0.58,0.69 1.15,1.37 1.75,2.08c1.78,2.13 3.55,4.27 5.32,6.42c0.58,0.71 1.17,1.42 1.77,2.15c3.38,4.1 6.65,8.27 9.82,12.54c1.37,1.85 2.76,3.67 4.16,5.5c18.34,24.55 34.72,51.37 47.27,79.33c0.92,1.99 1.9,3.93 2.9,5.88c2.31,4.58 4.15,9.32 6.01,14.1c0.72,1.79 1.43,3.59 2.15,5.38c4.67,11.76 9.11,23.53 12.85,35.62c0.38,1.22 0.76,2.43 1.15,3.69c6.71,21.69 12.35,43.33 15.49,65.86c0.24,1.62 0.53,3.23 0.88,4.83c0.6,3.27 0.75,6.49 0.92,9.81c0.3,5.21 0.92,10.19 2.06,15.29c1.86,9.37 1.67,19.01 1.67,28.52c0,1.45 0.01,2.89 0.01,4.34c0.01,3.02 0.01,6.04 0.01,9.06c0,3.04 0,6.08 0.02,9.12c0.11,25.41 -0.52,50.58 -5.02,75.67c-0.27,1.53 -0.53,3.06 -0.8,4.6c-5.78,33.15 -5.78,33.15 -10.62,47.65c-0.71,2.38 -1.1,4.54 -1.33,7c-0.48,3.87 -1.68,6.11 -3.44,9.56c-0.49,1.7 -0.94,3.41 -1.37,5.13c-1.31,5 -3.09,9.57 -5.14,14.3c-1.11,2.66 -2.14,5.31 -3.13,8.02c-16.19,44.26 -40.16,84.71 -69.03,121.84c-1.36,1.75 -2.71,3.51 -4.06,5.26c-5.02,6.5 -10.18,12.75 -15.78,18.76c-1.88,2.04 -3.69,4.1 -5.49,6.2c-4.77,5.47 -9.9,10.58 -15.03,15.71c-1.71,1.71 -3.4,3.42 -5.1,5.14c-5.91,5.94 -11.88,11.52 -18.47,16.71c-2.46,1.99 -4.78,4.08 -7.08,6.25c-6.71,6.08 -13.99,11.38 -21.32,16.68c-0.77,0.57 -1.55,1.13 -2.35,1.71c-11.37,8.21 -22.99,15.79 -35.12,22.82c-2.54,1.48 -5.08,2.97 -7.61,4.46c-26.9,15.74 -55.07,28.44 -84.66,38.25c-1.77,0.6 -3.53,1.21 -5.29,1.83c-10.2,3.53 -20.55,6.29 -31.02,8.9c-2.88,0.72 -5.76,1.45 -8.63,2.19c-10.77,2.72 -21.27,4.7 -32.32,5.84c-2.02,0.3 -4.04,0.61 -6.06,0.94c-6.11,0.96 -12.24,1.81 -18.37,2.63c-0.93,0.12 -1.86,0.25 -2.82,0.38c-16.25,2.14 -32.44,2.33 -48.81,2.37c-1.82,0 -1.82,0 -3.68,0c-21.01,0.01 -41.48,-1.25 -62.26,-4.32c-1.7,-0.24 -1.7,-0.24 -3.43,-0.48c-22.9,-3.29 -45.56,-8.36 -67.57,-15.52c-0.98,-0.32 -1.97,-0.63 -2.99,-0.96c-11.18,-3.61 -22.26,-7.27 -33.01,-12.04c-1.58,-0.67 -3.16,-1.35 -4.74,-2.02c-1.8,-0.76 -3.59,-1.53 -5.38,-2.29c-0.9,-0.38 -1.8,-0.77 -2.73,-1.16c-4.43,-1.89 -8.83,-3.83 -13.19,-5.89c-0.79,-0.37 -1.59,-0.74 -2.41,-1.12c-1.48,-0.7 -2.95,-1.4 -4.42,-2.13c-6.43,-3 -12.13,-3.39 -18.88,-1.14c-5.34,2.88 -8.66,5.89 -11.78,11.09c-0.64,1.05 -1.28,2.11 -1.94,3.19c-0.67,1.13 -1.34,2.25 -2.03,3.41c-0.71,1.18 -1.42,2.35 -2.13,3.52c-1.44,2.38 -2.88,4.76 -4.31,7.14c-2.9,4.8 -5.85,9.57 -8.81,14.34c-0.52,0.84 -1.04,1.68 -1.58,2.55c-5.01,8.1 -10.1,16.15 -15.2,24.19c-1.49,2.19 -1.49,2.19 -2.19,4.27c-1.15,2.57 -2.17,4.16 -4.28,6.05c-4.83,1.22 -9.66,1.01 -14.61,0.91c-1.51,0 -3.02,0 -4.52,0c-4.09,0.01 -8.18,-0.04 -12.27,-0.1c-4.27,-0.05 -8.55,-0.05 -12.82,-0.06c-8.1,-0.03 -16.19,-0.09 -24.28,-0.17c-9.21,-0.09 -18.43,-0.13 -27.64,-0.17c-18.96,-0.09 -37.91,-0.23 -56.86,-0.41c1.38,-2.82 2.82,-5.22 4.77,-7.69c0.83,-1.06 0.83,-1.06 1.67,-2.14c0.9,-1.14 0.9,-1.14 1.81,-2.29c1.28,-1.63 2.55,-3.26 3.83,-4.89c0.65,-0.83 1.31,-1.66 1.98,-2.51c2.99,-3.82 5.97,-7.65 8.94,-11.48c1.17,-1.49 2.33,-2.99 3.49,-4.48c2.37,-3.05 4.75,-6.11 7.12,-9.16c5.28,-6.8 10.57,-13.59 15.89,-20.36c10.96,-13.92 21.85,-27.9 32.55,-42.01c6.07,-8 12.23,-15.9 18.64,-23.64c6.32,-7.67 9.18,-12.25 8.31,-22.35c-0.06,-0.81 -0.12,-1.62 -0.18,-2.46c-0.79,-5.67 -2.98,-8.13 -7.4,-11.6c-2.85,-2.28 -5.42,-4.79 -7.98,-7.37c-0.47,-0.48 -0.95,-0.96 -1.44,-1.45c-3.84,-3.9 -7.47,-7.93 -11,-12.12c-0.84,-0.99 -1.68,-1.97 -2.55,-2.99c-5.9,-6.93 -11.77,-13.89 -17.45,-21.01c-0.46,-0.57 -0.92,-1.15 -1.39,-1.74c-9.99,-12.57 -18.87,-25.8 -27.61,-39.26c-0.42,-0.64 -0.84,-1.29 -1.27,-1.95c-11.1,-17.03 -20.17,-35.44 -28.69,-53.86c-0.96,-2.01 -1.97,-3.99 -3,-5.97c-2.8,-5.55 -4.86,-11.4 -7.04,-17.22c-0.44,-1.15 -0.88,-2.3 -1.33,-3.48c-6.23,-16.31 -11.72,-32.49 -15.67,-49.52c-0.26,-1.11 -0.52,-2.22 -0.79,-3.36c-1.56,-6.62 -3.09,-13.24 -4.58,-19.88c-0.39,-1.69 -0.77,-3.38 -1.17,-5.07c-1.49,-6.41 -2.52,-12.87 -3.52,-19.37c-0.18,-1.16 -0.36,-2.32 -0.54,-3.51c-1.02,-6.83 -1.84,-13.57 -2.16,-20.47c-0.23,-3.26 -0.72,-6.37 -1.25,-9.58c-1.53,-10.47 -1.25,-21.03 -1.19,-31.59c0.01,-3.5 0.02,-7 0.02,-10.51c0.06,-39.51 0.06,-39.51 2.43,-58.53c0.13,-1.06 0.26,-2.12 0.39,-3.22c12.38,-97.34 54.46,-192.81 122.05,-264.49c1.85,-2 3.64,-4.05 5.44,-6.1c4.48,-5 9.2,-9.75 13.93,-14.5c0.76,-0.77 1.52,-1.53 2.3,-2.31c4.16,-4.15 8.41,-8.14 12.87,-11.98c2.26,-1.95 4.45,-3.95 6.65,-5.96c9.22,-8.3 19.15,-15.67 29.1,-23.05c1.89,-1.42 3.77,-2.84 5.65,-4.28c10.34,-7.81 21.25,-14.59 32.37,-21.24c0.83,-0.5 1.67,-1 2.52,-1.52c71.34,-42.76 154.25,-64.57 237.17,-64.79zm-51.59,93.16c-0.66,0.09 -1.33,0.17 -2.02,0.25c-19.9,2.52 -39.12,7.47 -58.08,13.9c-4.6,1.56 -9.19,3.09 -13.87,4.38c-4.64,1.37 -8.89,3.27 -13.26,5.33c-2.8,1.26 -5.61,2.32 -8.49,3.36c-16.5,6.26 -32.44,14.42 -47.42,23.72c-2,1.24 -4.01,2.45 -6.02,3.67c-12.46,7.57 -24.14,16.04 -35.34,25.37c-1.74,1.46 -3.49,2.89 -5.26,4.31c-11.06,8.87 -21.18,18.62 -31.21,28.61c-0.8,0.79 -1.6,1.59 -2.42,2.4c-8.76,7.98 -8.76,7.98 -14.71,17.85c-0.66,0 -1.32,0 -2,0c-1.3,1.37 -1.3,1.37 -2.57,3.19c-0.5,0.67 -1,1.35 -1.51,2.04c-0.53,0.73 -1.06,1.46 -1.61,2.21c-1.09,1.48 -2.18,2.96 -3.27,4.44c-0.52,0.72 -1.05,1.43 -1.59,2.17c-1.71,2.31 -3.48,4.57 -5.26,6.83c-6.11,7.81 -11.54,16.06 -16.75,24.5c-0.85,1.37 -0.85,1.37 -1.71,2.76c-7.19,10.33 -7.19,10.33 -10.73,21.86c-0.66,0 -1.32,0 -2,0c-0.25,0.66 -0.49,1.32 -0.75,2c-1.23,2.96 -2.66,5.78 -4.11,8.64c-1.31,2.72 -2.44,5.5 -3.58,8.3c-1.51,3.72 -3.12,7.18 -5.18,10.63c-2.39,4.11 -3.55,8.19 -4.7,12.79c-1.22,4.75 -2.94,9.2 -5.18,13.58c-4.25,8.68 -5.43,17.55 -6.5,27.06c-0.66,0 -1.32,0 -2,0c-1.84,9.37 -3.44,18.7 -4.57,28.19c-0.43,2.81 -0.43,2.81 -1.43,3.81c-0.53,2.98 -1,5.95 -1.44,8.94c-0.13,0.91 -0.26,1.82 -0.39,2.76c-0.4,2.77 -0.78,5.53 -1.17,8.3c-0.1,0.73 -0.21,1.46 -0.32,2.21c-2.09,14.78 -2.36,29.69 -2.63,44.59c-0.05,2.24 -0.1,4.48 -0.15,6.72c-0.89,35.21 -0.89,35.21 6.1,69.48c0.39,2.14 0.39,2.14 0.61,4.12c1.68,13.79 5.14,26.68 9.39,39.88c0.33,1.02 0.66,2.04 0.99,3.08c3.5,10.74 7.17,21.14 12.57,31.08c1.47,2.89 2.43,5.77 3.44,8.84c0.66,0.99 1.32,1.98 2,3c0.68,2 1.35,4 2,6c0.57,1.61 1.15,3.22 1.75,4.82c0.29,0.76 0.57,1.53 0.86,2.33c1.65,3.38 3.71,6.34 5.82,9.45c2.48,3.79 4.53,7.78 6.63,11.78c16.94,31.37 40.8,58.49 65.82,83.62c0.69,0.7 1.38,1.39 2.09,2.11c3.96,3.95 8.03,7.71 12.27,11.36c2.1,1.83 4.11,3.74 6.14,5.66c4.79,4.33 9.9,8.14 15.12,11.94c0.8,0.58 1.61,1.16 2.43,1.77c0.76,0.54 1.51,1.08 2.29,1.64c1.02,0.73 1.02,0.73 2.06,1.47c1.67,1.23 1.67,1.23 3.72,1.05c0,0.66 0,1.32 0,2c2.17,1.62 2.17,1.62 4.94,3.25c3.61,2.23 7.18,4.48 10.69,6.88c3.46,2.32 6.99,4.4 10.66,6.39c3.59,1.96 7.15,3.97 10.71,5.98c1.4,0.79 2.79,1.57 4.19,2.35c2.2,1.24 4.4,2.49 6.6,3.74c6.29,3.56 12.71,6.22 19.46,8.79c5.14,1.96 10.13,4.12 15.12,6.43c10.61,4.91 10.61,4.91 21.88,7.57c3.19,0.53 5.21,1.17 8.1,2.44c6.46,2.64 13.1,4.17 19.9,5.68c0.67,0.15 1.33,0.3 2.02,0.46c14.78,3.3 29.67,5.46 44.73,7.04c0.79,0.09 1.58,0.17 2.4,0.26c7.22,0.72 14.39,0.95 21.65,1.02c1.23,0.01 2.47,0.02 3.74,0.03c41.56,0.35 87.25,0.18 126.21,-16.47c2.39,-1 4.79,-1.68 7.32,-2.27c7.73,-2.01 15.13,-4.98 22.43,-8.19c4.02,-1.7 8.11,-3.04 12.25,-4.38c0.99,-0.33 1.98,-0.66 3,-1c0,-0.66 0,-1.32 0,-2c1.24,-0.35 2.48,-0.7 3.75,-1.06c5.16,-1.71 9.54,-4.33 14.17,-7.13c2.85,-1.67 5.72,-3.13 8.71,-4.56c8.47,-4.15 16.39,-9.24 24.37,-14.25c0.88,-0.54 1.75,-1.08 2.65,-1.63c6.47,-4.05 12.61,-8.4 18.67,-13.05c0.9,-0.7 1.81,-1.39 2.74,-2.11c7.55,-5.82 14.81,-11.9 21.94,-18.21c0.94,-0.8 1.88,-1.61 2.85,-2.44c0.84,-0.72 1.67,-1.44 2.53,-2.18c0.71,-0.61 1.42,-1.22 2.15,-1.85c1.7,-1.41 1.7,-1.41 1.47,-3.53c0.54,-0.21 1.08,-0.43 1.64,-0.65c3.21,-1.83 5.61,-4.34 8.18,-6.97c0.53,-0.55 1.07,-1.09 1.62,-1.65c4.02,-4.11 7.86,-8.33 11.56,-12.73c0.8,-0.92 1.59,-1.83 2.41,-2.78c15.66,-18.14 29.39,-37.6 41.59,-58.22c0.61,-1 1.21,-2 1.84,-3.04c4.48,-7.52 8.4,-15.26 12.25,-23.12c1.64,-3.31 3.37,-6.57 5.1,-9.82c1.06,-2.27 1.06,-2.27 0.81,-6.02c0.66,0 1.32,0 2,0c0.31,-0.85 0.61,-1.69 0.92,-2.57c0.42,-1.17 0.84,-2.34 1.27,-3.55c0.22,-0.63 0.45,-1.26 0.68,-1.91c1.14,-3.2 2.29,-6.4 3.44,-9.59c1.24,-3.46 2.47,-6.92 3.69,-10.38c0.34,-0.95 0.68,-1.9 1.03,-2.88c2.43,-7.02 4.35,-14.14 6.13,-21.36c0.92,-3.63 1.89,-6.87 3.43,-10.31c1.64,-4 2.07,-7.5 2.41,-11.76c0.39,-4.71 1.02,-9.01 2.46,-13.52c1.73,-5.46 2.5,-10.87 3.17,-16.54c0.12,-0.95 0.24,-1.91 0.36,-2.89c1.39,-11.12 2.17,-22.14 2.18,-33.35c0,-1.17 0.01,-2.34 0.01,-3.55c0.01,-2.47 0.01,-4.94 0.01,-7.41c0,-3.69 0.02,-7.39 0.04,-11.09c0.02,-11.43 -0.15,-22.79 -1.11,-34.19c-0.12,-1.39 -0.12,-1.39 -0.24,-2.81c-0.48,-5.02 -1.39,-9.53 -2.88,-14.34c-0.31,-2.53 -0.58,-5.08 -0.81,-7.62c-0.89,-8.74 -2.9,-17.09 -5.02,-25.6c-1.09,-4.38 -1.96,-8.76 -2.61,-13.23c-0.68,-3.1 -1.7,-6.02 -2.72,-9.01c-1.48,-4.49 -2.74,-9.05 -4.02,-13.6c-0.28,-0.96 -0.55,-1.92 -0.83,-2.91c-0.67,-2.34 -1.33,-4.69 -1.99,-7.03c-0.66,0 -1.32,0 -2,0c-0.25,-1.26 -0.49,-2.51 -0.75,-3.81c-1.43,-6.44 -3.32,-13.01 -6.76,-18.68c-1.53,-2.58 -2.41,-4.98 -3.36,-7.82c-5.46,-14.63 -13.9,-28.57 -22.31,-41.69c-2.04,-3.17 -4.05,-6.36 -5.98,-9.6c-0.36,-0.6 -0.72,-1.2 -1.09,-1.81c-1.02,-1.71 -2.03,-3.42 -3.05,-5.13c-0.56,-0.81 -1.12,-1.62 -1.7,-2.46c-0.66,0 -1.32,0 -2,0c-0.25,-0.53 -0.49,-1.07 -0.75,-1.62c-5.61,-10.66 -14.03,-20.27 -22.16,-29.1c-1.95,-2.12 -3.84,-4.28 -5.71,-6.46c-2.82,-3.25 -5.8,-6.27 -8.87,-9.27c-1.51,-1.55 -1.51,-1.55 -3.32,-3.98c-0.39,-0.52 -0.78,-1.04 -1.19,-1.57c-0.66,0 -1.32,0 -2,0c-0.21,-0.54 -0.41,-1.08 -0.63,-1.64c-1.89,-3.26 -4.53,-5.55 -7.3,-8.04c-0.59,-0.53 -1.17,-1.06 -1.77,-1.61c-5.27,-4.76 -10.75,-9.26 -16.3,-13.71c-1.75,-1.46 -3.5,-2.91 -5.25,-4.37c-11.1,-9.06 -22.72,-17.06 -34.95,-24.52c-2.56,-1.58 -5.08,-3.22 -7.61,-4.86c-11.09,-7.04 -22.89,-12.54 -34.76,-18.1c-2.03,-0.96 -4.06,-1.93 -6.08,-2.91c-7.3,-3.5 -14.75,-6.24 -22.4,-8.86c-3.14,-1.08 -6.2,-2.27 -9.26,-3.56c-4.53,-1.88 -9.15,-3.02 -13.93,-4.11c-2.71,-0.69 -5.17,-1.65 -7.76,-2.71c-1.9,-0.49 -3.81,-0.98 -5.72,-1.43c-2.45,-0.61 -4.86,-1.31 -7.28,-2c-7.26,-1.97 -14.59,-3.32 -22,-4.57c-1.42,-0.24 -1.42,-0.24 -2.88,-0.49c-19.17,-3.2 -37.85,-4.15 -57.25,-4.03c-3.84,0.02 -7.67,0.01 -11.5,-0.01c-15.87,-0.08 -31.51,0.44 -47.27,2.38z" fill="#212121" id="svg_3"/>
  <path d="m654.94,324.38c16.93,14.18 23.81,37.82 29.75,58.25c0.19,0.66 0.39,1.32 0.58,2c2.27,7.81 4.32,15.61 5.93,23.58c0.86,2.99 2.13,5.19 3.8,7.8c0.81,2.14 0.81,2.14 1.44,4.25c9.5,29.56 32.15,48.78 56.99,65.64c21.68,14.72 21.68,14.72 29.57,25.11c0.4,0.51 0.8,1.02 1.21,1.54c3.47,4.6 5.79,9.43 8.04,14.71c0.35,0.8 0.7,1.6 1.07,2.42c5.57,12.83 5.81,28.38 0.87,41.58c-0.59,1.36 -0.59,1.36 -1.19,2.75c-0.35,0.86 -0.7,1.72 -1.06,2.61c-6.6,14.7 -20.01,25.92 -32.25,35.95c-20.71,18.07 -29.79,47.72 -38.25,72.81c-12.59,37.13 -36.37,71 -72.29,88.78c-23.43,10.86 -56.08,18.72 -81.42,10.67c-3.14,-0.95 -6.23,-1.39 -9.48,-1.89c-19.28,-3.85 -36.72,-14.12 -53.81,-23.44c-44.22,-24.1 -90.85,-27.02 -139.89,-17.19c-24.35,4.77 -47.57,3.98 -69.11,-9.59c-8.5,-5.98 -14.75,-13.08 -20.44,-21.71c-0.52,-0.78 -1.04,-1.56 -1.58,-2.36c-6.64,-10.44 -10.98,-22.2 -15.21,-33.78c-1.64,-4.44 -3.43,-8.78 -5.33,-13.11c-1.86,-4.25 -3.49,-8.46 -4.88,-12.88c-1.66,-5.19 -3.91,-9.83 -6.42,-14.66c-2.9,-5.91 -5.21,-12.07 -7.58,-18.21c-0.31,-0.8 -0.62,-1.6 -0.94,-2.42c-0.7,-1.85 -1.38,-3.72 -2.06,-5.58c-0.38,-1.02 -0.38,-1.02 -0.77,-2.06c-1.87,-5.2 -2.86,-10.29 -3.69,-15.75c-0.75,-4.48 -1.8,-8.87 -2.85,-13.28c-5.63,-23.94 -1.79,-51.63 8.31,-73.91c0.3,-0.67 0.59,-1.33 0.89,-2.01c6.5,-14.39 15.2,-26.59 26.11,-37.99c0.55,-0.6 1.1,-1.2 1.66,-1.82c20.47,-21.67 49.48,-32.88 78.34,-37.18c1.09,-0.17 2.17,-0.34 3.29,-0.51c9.95,-1.4 19.65,-1.74 29.69,-1.65c2.73,0.03 5.46,0.04 8.19,0.05c5.8,0.03 11.6,0.06 17.39,0.11c6.74,0.04 13.47,0.08 20.21,0.11c2.66,0.01 5.32,0.03 7.98,0.06c9.95,0.06 19.44,-0.54 29.25,-2.17c1.19,-0.19 1.19,-0.19 2.4,-0.38c7.98,-1.33 15.22,-3.36 22.6,-6.62c1.56,-0.59 3.13,-1.17 4.69,-1.75c26.24,-10.62 43.33,-28.37 57.99,-52.2c12.97,-21.08 28.04,-39.8 52.54,-47.4c21.22,-5.01 42.21,-0.05 59.72,12.72z" fill="#FDFDFD" id="svg_4"/>
  <path d="m506.69,22.69c1.5,-0.01 1.5,-0.01 3.03,-0.01c14.2,-0.03 28.17,0.77 42.28,2.32c1.23,0.14 1.23,0.14 2.49,0.27c5.53,0.61 11.06,1.28 16.58,1.98c0.83,0.11 1.66,0.22 2.51,0.32c80.94,10.49 159.6,43.47 223.42,94.43c0.69,0.55 1.38,1.1 2.1,1.66c7.64,6.08 15.13,12.27 22.28,18.93c1.4,1.29 2.81,2.57 4.25,3.8c6.21,5.3 11.95,11.03 17.7,16.81c1.73,1.74 3.47,3.47 5.21,5.2c5.7,5.69 11.3,11.41 16.46,17.6c0.58,0.69 1.15,1.37 1.75,2.08c1.78,2.13 3.55,4.27 5.32,6.42c0.58,0.71 1.17,1.42 1.77,2.15c3.38,4.1 6.65,8.27 9.82,12.54c1.37,1.85 2.76,3.67 4.16,5.5c18.34,24.55 34.72,51.37 47.27,79.33c0.92,1.99 1.9,3.93 2.9,5.88c2.31,4.58 4.15,9.32 6.01,14.1c0.72,1.79 1.43,3.59 2.15,5.38c4.67,11.76 9.11,23.53 12.85,35.62c0.38,1.22 0.76,2.43 1.15,3.69c6.71,21.69 12.35,43.33 15.49,65.86c0.24,1.62 0.53,3.23 0.88,4.83c0.6,3.27 0.75,6.49 0.92,9.81c0.3,5.21 0.92,10.19 2.06,15.29c1.86,9.37 1.67,19.01 1.67,28.52c0,1.45 0.01,2.89 0.01,4.34c0.01,3.02 0.01,6.04 0.01,9.06c0,3.04 0,6.08 0.02,9.12c0.11,25.41 -0.52,50.58 -5.02,75.67c-0.27,1.53 -0.53,3.06 -0.8,4.6c-5.78,33.15 -5.78,33.15 -10.62,47.65c-0.71,2.38 -1.1,4.54 -1.33,7c-0.48,3.87 -1.68,6.11 -3.44,9.56c-0.49,1.7 -0.94,3.41 -1.37,5.13c-1.31,5 -3.09,9.57 -5.14,14.3c-1.11,2.66 -2.14,5.31 -3.13,8.02c-16.19,44.26 -40.16,84.71 -69.03,121.84c-1.36,1.75 -2.71,3.51 -4.06,5.26c-5.02,6.5 -10.18,12.75 -15.78,18.76c-1.88,2.04 -3.69,4.1 -5.49,6.2c-4.77,5.47 -9.9,10.58 -15.03,15.71c-1.71,1.71 -3.4,3.42 -5.1,5.14c-5.91,5.94 -11.88,11.52 -18.47,16.71c-2.46,1.99 -4.78,4.08 -7.08,6.25c-6.71,6.08 -13.99,11.38 -21.32,16.68c-0.77,0.57 -1.55,1.13 -2.35,1.71c-11.37,8.21 -22.99,15.79 -35.12,22.82c-2.54,1.48 -5.08,2.97 -7.61,4.46c-26.9,15.74 -55.07,28.44 -84.66,38.25c-1.77,0.6 -3.53,1.21 -5.29,1.83c-10.2,3.53 -20.55,6.29 -31.02,8.9c-2.88,0.72 -5.76,1.45 -8.63,2.19c-10.77,2.72 -21.27,4.7 -32.32,5.84c-2.02,0.3 -4.04,0.61 -6.06,0.94c-6.11,0.96 -12.24,1.81 -18.37,2.63c-0.93,0.12 -1.86,0.25 -2.82,0.38c-16.25,2.14 -32.44,2.33 -48.81,2.37c-1.82,0 -1.82,0 -3.68,0c-21.01,0.01 -41.48,-1.25 -62.26,-4.32c-1.7,-0.24 -1.7,-0.24 -3.43,-0.48c-22.9,-3.29 -45.56,-8.36 -67.57,-15.52c-0.98,-0.32 -1.97,-0.63 -2.99,-0.96c-11.18,-3.61 -22.26,-7.27 -33.01,-12.04c-1.58,-0.67 -3.16,-1.35 -4.74,-2.02c-1.8,-0.76 -3.59,-1.53 -5.38,-2.29c-0.9,-0.38 -1.8,-0.77 -2.73,-1.16c-4.43,-1.89 -8.83,-3.83 -13.19,-5.89c-0.79,-0.37 -1.59,-0.74 -2.41,-1.12c-1.48,-0.7 -2.95,-1.4 -4.42,-2.13c-6.43,-3 -12.13,-3.39 -18.88,-1.14c-5.34,2.88 -8.66,5.89 -11.78,11.09c-0.64,1.05 -1.28,2.11 -1.94,3.19c-0.67,1.13 -1.34,2.25 -2.03,3.41c-0.71,1.18 -1.42,2.35 -2.13,3.52c-1.44,2.38 -2.88,4.76 -4.31,7.14c-2.9,4.8 -5.85,9.57 -8.81,14.34c-0.52,0.84 -1.04,1.68 -1.58,2.55c-5.01,8.1 -10.1,16.15 -15.2,24.19c-1.49,2.19 -1.49,2.19 -2.19,4.27c-1.15,2.57 -2.17,4.16 -4.28,6.05c-4.83,1.22 -9.66,1.01 -14.61,0.91c-1.51,0 -3.02,0 -4.52,0c-4.09,0.01 -8.18,-0.04 -12.27,-0.1c-4.27,-0.05 -8.55,-0.05 -12.82,-0.06c-8.1,-0.03 -16.19,-0.09 -24.28,-0.17c-9.21,-0.09 -18.43,-0.13 -27.64,-0.17c-18.96,-0.09 -37.91,-0.23 -56.86,-0.41c1.38,-2.82 2.82,-5.22 4.77,-7.69c0.83,-1.06 0.83,-1.06 1.67,-2.14c0.9,-1.14 0.9,-1.14 1.81,-2.29c1.28,-1.63 2.55,-3.26 3.83,-4.89c0.65,-0.83 1.31,-1.66 1.98,-2.51c2.99,-3.82 5.97,-7.65 8.94,-11.48c1.17,-1.49 2.33,-2.99 3.49,-4.48c2.37,-3.05 4.75,-6.11 7.12,-9.16c5.28,-6.8 10.57,-13.59 15.89,-20.36c10.96,-13.92 21.85,-27.9 32.55,-42.01c6.07,-8 12.23,-15.9 18.64,-23.64c6.32,-7.67 9.18,-12.25 8.31,-22.35c-0.06,-0.81 -0.12,-1.62 -0.18,-2.46c-0.79,-5.67 -2.98,-8.13 -7.4,-11.6c-2.85,-2.28 -5.42,-4.79 -7.98,-7.37c-0.47,-0.48 -0.95,-0.96 -1.44,-1.45c-3.84,-3.9 -7.47,-7.93 -11,-12.12c-0.84,-0.99 -1.68,-1.97 -2.55,-2.99c-5.9,-6.93 -11.77,-13.89 -17.45,-21.01c-0.46,-0.57 -0.92,-1.15 -1.39,-1.74c-9.99,-12.57 -18.87,-25.8 -27.61,-39.26c-0.42,-0.64 -0.84,-1.29 -1.27,-1.95c-11.1,-17.03 -20.17,-35.44 -28.69,-53.86c-0.96,-2.01 -1.97,-3.99 -3,-5.97c-2.8,-5.55 -4.86,-11.4 -7.04,-17.22c-0.44,-1.15 -0.88,-2.3 -1.33,-3.48c-6.23,-16.31 -11.72,-32.49 -15.67,-49.52c-0.26,-1.11 -0.52,-2.22 -0.79,-3.36c-1.56,-6.62 -3.09,-13.24 -4.58,-19.88c-0.39,-1.69 -0.77,-3.38 -1.17,-5.07c-1.49,-6.41 -2.52,-12.87 -3.52,-19.37c-0.18,-1.16 -0.36,-2.32 -0.54,-3.51c-1.02,-6.83 -1.84,-13.57 -2.16,-20.47c-0.23,-3.26 -0.72,-6.37 -1.25,-9.58c-1.53,-10.47 -1.25,-21.03 -1.19,-31.59c0.01,-3.5 0.02,-7 0.02,-10.51c0.06,-39.51 0.06,-39.51 2.43,-58.53c0.13,-1.06 0.26,-2.12 0.39,-3.22c12.38,-97.34 54.46,-192.81 122.05,-264.49c1.85,-2 3.64,-4.05 5.44,-6.1c4.48,-5 9.2,-9.75 13.93,-14.5c0.76,-0.77 1.52,-1.53 2.3,-2.31c4.16,-4.15 8.41,-8.14 12.87,-11.98c2.26,-1.95 4.45,-3.95 6.65,-5.96c9.22,-8.3 19.15,-15.67 29.1,-23.05c1.89,-1.42 3.77,-2.84 5.65,-4.28c10.34,-7.81 21.25,-14.59 32.37,-21.24c0.83,-0.5 1.67,-1 2.52,-1.52c71.34,-42.76 154.25,-64.57 237.17,-64.79zm-56.69,29.31c-1.18,0.15 -2.37,0.3 -3.59,0.46c-3.1,0.41 -6.19,0.87 -9.28,1.36c-1.09,0.16 -2.17,0.33 -3.29,0.51c-15.84,2.55 -31.4,6.35 -46.84,10.67c-1.83,0.51 -1.83,0.51 -3.71,1.03c-6.49,1.83 -12.92,3.74 -19.29,5.97c-1.76,0.61 -1.76,0.61 -3.55,1.23c-1.28,0.44 -2.55,0.89 -3.82,1.34c-1.78,0.62 -1.78,0.62 -3.59,1.25c-3.15,1.1 -3.15,1.1 -6.04,3.18c-1.24,0.39 -2.47,0.79 -3.75,1.19c-5.09,1.63 -9.83,3.89 -14.64,6.19c-4.45,2.11 -8.93,4.01 -13.56,5.7c-2.12,0.86 -2.12,0.86 -4,2.4c-2.27,1.69 -4.41,2.59 -7.05,3.59c-3.09,1.17 -6.06,2.4 -9,3.93c0,0.66 0,1.32 0,2c-0.72,0.11 -1.44,0.21 -2.19,0.32c-3.07,0.74 -5.14,1.88 -7.81,3.56c-0.82,0.51 -1.65,1.02 -2.5,1.55c-0.82,0.52 -1.65,1.04 -2.5,1.57c-0.93,0.52 -1.85,1.04 -2.81,1.57c-0.72,0.47 -1.44,0.95 -2.19,1.43c0,0.66 0,1.32 0,2c-1.11,0.17 -1.11,0.17 -2.24,0.35c-2.83,0.67 -4.47,1.53 -6.84,3.17c-0.76,0.52 -1.52,1.05 -2.3,1.58c-0.8,0.57 -1.6,1.13 -2.43,1.72c-0.84,0.58 -1.67,1.16 -2.54,1.76c-7.4,5.17 -14.64,10.56 -21.81,16.04c-1.82,1.37 -3.66,2.72 -5.5,4.06c-0.56,0.42 -1.13,0.83 -1.71,1.26c-1.52,1.11 -3.04,2.22 -4.57,3.32c-0.68,0.58 -1.36,1.15 -2.06,1.74c0,0.66 0,1.32 0,2c-0.54,0.23 -1.09,0.46 -1.65,0.69c-3.05,1.7 -5.3,3.87 -7.85,6.25c-1.08,1.01 -2.16,2.01 -3.24,3.02c-0.54,0.51 -1.09,1.02 -1.65,1.55c-2.41,2.23 -4.86,4.42 -7.3,6.62c-10.75,9.81 -21.37,19.95 -30.36,31.43c-1.94,2.43 -4,4.68 -6.14,6.94c-6.25,6.88 -11.57,14.48 -17,22.01c-1.75,2.42 -3.51,4.82 -5.28,7.23c-6.51,8.9 -12.73,17.89 -18.53,27.26c-0.39,0.63 -0.78,1.25 -1.19,1.9c-4.26,6.8 -8.23,13.45 -10.98,21.03c-1.19,2.98 -3.02,5.44 -4.83,8.07c-1.04,2.32 -2.04,4.65 -3,7c-0.68,1.57 -1.37,3.13 -2.06,4.69c-0.32,0.73 -0.64,1.45 -0.97,2.2c-0.97,2.11 -0.97,2.11 -2.09,4.13c-1.15,2.23 -1.15,2.23 -0.88,5.98c-0.66,0 -1.32,0 -2,0c-0.5,1.44 -1,2.88 -1.5,4.32c-0.28,0.8 -0.55,1.6 -0.84,2.42c-0.8,2.35 -0.8,2.35 -0.66,5.26c-0.66,0 -1.32,0 -2,0c-0.5,1.61 -1,3.21 -1.5,4.82c-0.28,0.89 -0.55,1.78 -0.84,2.7c-0.79,2.54 -0.79,2.54 -0.66,5.48c-0.66,0 -1.32,0 -2,0c-2.77,7.84 -5.24,15.39 -6.54,23.64c-0.66,3.42 -1.95,6.22 -3.46,9.36c-1.69,3.77 -2.45,7.22 -3,11.32c-0.61,4.29 -1.36,8.41 -2.5,12.59c-0.87,3.65 -1.38,7.36 -1.94,11.07c-0.56,3.02 -0.56,3.02 -1.51,6.05c-1.38,4.77 -1.81,9.62 -2.3,14.55c-0.11,1.01 -0.21,2.02 -0.32,3.05c-0.34,3.21 -0.66,6.42 -0.99,9.62c-0.22,2.14 -0.45,4.28 -0.67,6.42c-0.76,7.31 -0.76,7.31 -1.5,14.63c-0.18,1.78 -0.36,3.57 -0.55,5.36c-0.75,7.34 -0.88,14.63 -0.89,22.01c0,1.28 0,2.57 -0.01,3.89c0,2.69 0,5.39 0,8.08c0,2.74 -0.01,5.47 -0.02,8.2c-0.12,20.67 -0.12,20.67 2.2,41.16c0.17,1.56 0.33,3.12 0.46,4.67c1.2,13.96 3.81,27.61 6.54,41.33c0.26,1.33 0.26,1.33 0.53,2.67c1.97,9.98 4.7,19.48 8.03,29.09c1.3,3.77 2.44,7.58 3.5,11.43c1.41,5.04 2.93,10.03 4.57,15c0.4,1.23 0.81,2.46 1.22,3.73c1.06,3.19 1.06,3.19 3.15,6.08c0.46,1.28 0.87,2.58 1.25,3.88c3.29,10.16 8.46,19.65 13.33,29.13c1.14,2.39 1.94,4.41 2.42,6.99c0.66,0 1.32,0 2,0c0.24,0.82 0.49,1.63 0.74,2.47c6.78,18.92 19.34,37 31.35,52.97c1.46,1.95 2.87,3.91 4.26,5.9c5.1,7.28 10.41,14.19 16.2,20.93c1.07,1.28 2.11,2.58 3.13,3.9c6.95,8.85 14.88,16.69 22.85,24.62c2.44,2.43 4.87,4.87 7.29,7.31c1.55,1.54 3.1,3.09 4.65,4.63c1.09,1.1 1.09,1.1 2.2,2.22c0.67,0.66 1.34,1.33 2.04,2.01c0.88,0.89 0.88,0.89 1.78,1.79c1.44,1.47 1.44,1.47 3.51,1.25c0,0.66 0,1.32 0,2c1.51,1.38 3.09,2.68 4.69,3.94c3.65,2.91 7.25,5.85 10.77,8.92c12.37,10.71 25.76,20.34 39.54,29.14c0.58,0.38 1.17,0.75 1.77,1.14c43.26,27.83 91.79,49.32 142.23,59.86c1.94,0.42 1.94,0.42 3.91,0.84c3.73,0.79 7.46,1.56 11.19,2.32c1.46,0.3 2.92,0.6 4.38,0.91c25.63,5.38 51.59,6.43 77.69,6.26c2.72,-0.02 5.44,-0.01 8.16,-0.01c15.01,0.02 29.77,-0.43 44.67,-2.32c1.62,-0.19 3.24,-0.38 4.86,-0.56c6.78,-0.48 6.78,-0.48 13.14,-2.44c1.8,-0.3 3.6,-0.56 5.4,-0.79c14.16,-1.94 27.84,-4.39 41.6,-8.21c1.52,-0.4 3.04,-0.81 4.57,-1.22c20.97,-5.55 20.97,-5.55 41.04,-13.63c5.03,-2.41 10.26,-4.36 15.49,-6.3c7.58,-2.83 14.73,-6.09 21.9,-9.85c1.46,-0.75 2.92,-1.5 4.38,-2.25c22.78,-11.79 45.48,-24.8 65.62,-40.75c1.11,-0.86 2.23,-1.71 3.34,-2.57c10.69,-8.26 20.92,-17.05 31.01,-26.03c1.65,-1.4 1.65,-1.4 3.86,-2.96c0.59,-0.47 1.18,-0.95 1.79,-1.44c0,-0.66 0,-1.32 0,-2c0.58,-0.24 1.16,-0.47 1.75,-0.72c2.71,-1.54 4.25,-3.33 6.25,-5.71c2,-2.37 3.76,-4.39 6.25,-6.23c0.58,-0.44 1.16,-0.88 1.75,-1.34c0,-0.66 0,-1.32 0,-2c0.66,0 1.32,0 2,0c1.51,-1.44 1.51,-1.44 3.07,-3.37c2.66,-3.15 5.39,-6.22 8.18,-9.25c5.14,-5.7 9.83,-11.71 14.51,-17.78c1.09,-1.4 2.19,-2.79 3.29,-4.18c3.49,-4.41 6.68,-8.91 9.69,-13.67c1.26,-1.75 1.26,-1.75 3.26,-2.75c0.62,-1.27 0.62,-1.27 1.25,-2.56c1.41,-2.77 2.74,-4.83 4.63,-7.25c2.65,-3.44 4.73,-6.96 6.78,-10.77c1.49,-2.69 3.12,-5.27 4.78,-7.85c0.6,-0.94 1.2,-1.88 1.82,-2.84c1.06,-1.67 2.13,-3.33 3.21,-4.98c4.03,-6.42 7.2,-13.19 10.37,-20.06c1.88,-4.05 3.85,-7.87 6.16,-11.69c0.83,-1.84 1.62,-3.69 2.38,-5.56c0.43,-1.05 0.85,-2.1 1.29,-3.18c0.44,-1.07 0.88,-2.15 1.33,-3.26c0.88,-2.08 1.75,-4.16 2.63,-6.25c1.38,-3.31 2.72,-6.62 3.94,-10c0.97,-2.69 2.14,-5.16 3.5,-7.68c1.8,-3.5 2.73,-6.84 3.44,-10.7c0.96,-4.64 2.42,-9.16 3.82,-13.69c3.08,-9.94 5.8,-19.9 8.11,-30.05c0.19,-0.84 0.38,-1.68 0.58,-2.54c0.25,-1.11 0.25,-1.11 0.51,-2.25c0.47,-1.84 0.47,-1.84 1.47,-3.84c8.8,-44.59 11.43,-92.82 6.34,-137.97c-0.26,-2.32 -0.49,-4.65 -0.72,-6.97c-1.07,-10.82 -2.83,-21.4 -4.97,-32.05c-0.52,-2.64 -1.04,-5.27 -1.55,-7.91c-1.82,-9.25 -3.83,-18.41 -6.22,-27.54c-1.22,-4.95 -2.11,-9.93 -2.97,-14.96c-0.93,-3.69 -2.29,-6.82 -3.88,-10.26c-1.67,-3.81 -2.85,-7.75 -4.09,-11.71c-3.92,-12.13 -8.78,-23.86 -13.7,-35.61c-1.52,-3.7 -2.95,-7.44 -4.35,-11.18c-0.75,-2.02 -0.75,-2.02 -2.89,-2.84c-0.73,-2.31 -1.4,-4.65 -2,-7c-0.66,0 -1.32,0 -2,0c-0.27,-0.88 -0.53,-1.77 -0.81,-2.68c-1.04,-3.25 -1.04,-3.25 -2.62,-5.69c-1.57,-2.63 -1.57,-2.63 -2.74,-6.08c-2.12,-5.76 -5.43,-10.76 -8.7,-15.92c-0.66,-1.05 -1.32,-2.1 -2,-3.18c-5.6,-8.81 -11.58,-17.29 -17.83,-25.65c-1.25,-1.73 -2.4,-3.49 -3.54,-5.29c-0.58,-0.83 -1.16,-1.65 -1.76,-2.51c-0.66,0 -1.32,0 -2,0c-0.23,-0.7 -0.46,-1.4 -0.69,-2.13c-1.56,-3.43 -3.72,-6 -6.18,-8.8c-0.72,-0.84 -0.72,-0.84 -1.46,-1.69c-1.02,-1.18 -2.05,-2.37 -3.07,-3.55c-2.15,-2.47 -4.28,-4.96 -6.41,-7.44c-1.01,-1.18 -2.03,-2.36 -3.04,-3.54c-2.3,-2.68 -4.59,-5.37 -6.84,-8.09c-3.01,-3.6 -6.14,-6.82 -9.81,-9.76c-2.72,-2.17 -5.06,-4.51 -7.5,-7c-5.47,-5.58 -11.02,-10.95 -17,-16c-0.89,-0.76 -1.79,-1.52 -2.71,-2.3c-17.77,-14.98 -36.65,-28.28 -56.29,-40.7c-0.97,-0.62 -0.97,-0.62 -1.97,-1.25c-6.15,-4.59 -6.15,-4.59 -13.03,-6.75c0,-0.66 0,-1.32 0,-2c-1.07,-0.43 -2.14,-0.86 -3.25,-1.31c-2.17,-0.88 -3.8,-1.73 -5.65,-3.19c-2.4,-1.72 -4.51,-2.4 -7.35,-3.18c-0.89,-0.26 -1.78,-0.51 -2.7,-0.77c-0.68,-0.18 -1.35,-0.36 -2.05,-0.55c0,-0.66 0,-1.32 0,-2c-5.97,-2.73 -11.95,-5.42 -18,-8c-0.61,-0.28 -1.23,-0.56 -1.86,-0.86c-7.55,-3.47 -15.33,-6.31 -23.14,-9.14c-0.96,-0.35 -1.93,-0.7 -2.93,-1.07c-13.16,-4.77 -26.21,-8.99 -39.9,-11.95c-3.22,-0.71 -6.11,-1.74 -9.17,-2.98c-2.05,-0.4 -4.11,-0.75 -6.18,-1.06c-5.62,-0.84 -5.62,-0.84 -7.82,-1.94c-1.45,-0.15 -2.91,-0.27 -4.37,-0.37c-3.84,-0.34 -7.34,-1.02 -11.04,-2.06c-7.12,-1.82 -14.23,-2.61 -21.54,-3.24c-0.7,-0.06 -1.4,-0.12 -2.13,-0.19c-16.79,-1.47 -33.55,-1.56 -50.39,-1.46c-3.15,0.01 -6.29,0.01 -9.43,0c-16.13,-0.02 -32.1,0.13 -48.1,2.32z" fill="#434242" id="svg_5"/>
  <path d="m536.78,487.29c8.04,7.05 14.57,14.64 20.22,23.71c0.42,0.67 0.83,1.33 1.26,2.02c1.72,2.87 2.74,4.58 2.74,7.98c0.66,0 1.32,0 2,0c10.47,24.56 13.14,53.72 3,79c-4.44,10.76 -9.48,20.05 -17,29c-0.69,0.85 -1.37,1.7 -2.08,2.57c-8.47,10.01 -19.34,18.31 -30.92,24.43c-1.02,0.55 -1.02,0.55 -2.05,1.11c-7.23,3.55 -15.15,5.09 -22.95,6.89c-0.85,0.23 -1.71,0.46 -2.59,0.7c-12.12,3.02 -26.36,2.15 -38.41,-0.7c-1.18,-0.27 -1.18,-0.27 -2.39,-0.55c-26.6,-7.13 -46.97,-24.57 -61.61,-47.45c-0.56,-0.84 -1.12,-1.68 -1.7,-2.55c-3.73,-6.14 -5.91,-12.77 -8.11,-19.57c-0.31,-0.93 -0.61,-1.87 -0.92,-2.82c-7.58,-24.46 -4.24,-51.1 7.29,-73.63c3.32,-6.19 7.15,-11.87 11.44,-17.43c0.53,-0.69 1.07,-1.39 1.62,-2.1c15.18,-18.64 39.4,-31.99 63.22,-34.7c29.63,-2.67 55.08,5.27 77.94,24.09z" fill="#FEA605" id="svg_6"/>
  <path d="m183,852c0.66,0 1.32,0 2,0c1.45,1.5 1.45,1.5 3.13,3.56c5.6,6.58 12.24,11.82 19.01,17.16c2.06,1.64 4.1,3.29 6.13,4.96c23.45,19.2 49.2,36.22 76.64,49.16c2.09,1.16 2.09,1.16 3.09,3.16c-0.77,0.15 -1.55,0.29 -2.34,0.45c-1.05,0.22 -2.09,0.44 -3.16,0.68c-1.53,0.31 -1.53,0.31 -3.09,0.63c-9.75,3.55 -14.04,10.62 -19.1,19.3c-0.69,1.17 -1.39,2.33 -2.09,3.5c-1.41,2.35 -2.82,4.71 -4.22,7.07c-2.86,4.81 -5.8,9.56 -8.75,14.31c-0.52,0.84 -1.04,1.68 -1.58,2.55c-5.02,8.09 -10.1,16.15 -15.21,24.19c-1.49,2.18 -1.49,2.18 -2.18,4.26c-1.15,2.58 -2.17,4.16 -4.28,6.06c-4.83,1.21 -9.67,1.01 -14.61,0.91c-1.51,0 -3.02,0 -4.53,0c-4.09,0 -8.17,-0.04 -12.26,-0.1c-4.28,-0.05 -8.55,-0.05 -12.83,-0.06c-8.09,-0.03 -16.18,-0.09 -24.27,-0.17c-9.22,-0.09 -18.43,-0.14 -27.65,-0.18c-18.95,-0.08 -37.9,-0.22 -56.85,-0.4c1.38,-2.82 2.82,-5.22 4.77,-7.7c0.55,-0.7 1.1,-1.41 1.67,-2.14c0.6,-0.75 1.2,-1.51 1.81,-2.28c1.28,-1.63 2.55,-3.26 3.83,-4.89c0.65,-0.83 1.3,-1.66 1.98,-2.51c2.99,-3.82 5.97,-7.65 8.94,-11.48c1.16,-1.49 2.33,-2.99 3.49,-4.48c2.37,-3.06 4.74,-6.11 7.12,-9.16c5.28,-6.8 10.56,-13.59 15.89,-20.36c10.96,-13.92 21.84,-27.9 32.55,-42.02c6.07,-7.99 12.23,-15.89 18.64,-23.63c1.45,-1.77 2.88,-3.56 4.31,-5.35c0.78,-0.94 1.55,-1.87 2.36,-2.84c2.29,-4.41 2.08,-8.15 1.89,-13.03c-0.02,-0.88 -0.04,-1.76 -0.05,-2.67c-0.05,-2.15 -0.12,-4.31 -0.2,-6.46z" fill="#212020" id="svg_7"/>
  <path d="m501,469c18,1.69 35.48,15.87 47,29c13,16.26 13,16.26 13,23c0.66,0 1.32,0 2,0c10.47,24.56 13.14,53.71 3,79c-4.44,10.76 -9.48,20.05 -17,29c-0.69,0.85 -1.37,1.7 -2.08,2.57c-8.47,10.01 -19.34,18.31 -30.92,24.43c-1.02,0.55 -1.02,0.55 -2.05,1.11c-7.23,3.55 -15.15,5.09 -22.95,6.89c-0.85,0.23 -1.71,0.46 -2.59,0.7c-12.12,3.01 -26.36,2.15 -38.41,-0.7c-0.79,-0.18 -1.58,-0.37 -2.39,-0.55c-23.26,-6.24 -45.86,-21.67 -58.61,-42.45c0,-0.66 0,-1.32 0,-2c3.4,1.06 6.01,2.01 9,4c0,0.66 0,1.32 0,2c0.67,0.12 1.34,0.23 2.02,0.36c3.61,0.78 7.09,1.84 10.6,2.95c0.71,0.22 1.41,0.44 2.14,0.67c5.05,1.6 10.04,3.34 15.01,5.22c5.56,1.99 10.68,1.99 16.54,1.99c0.98,0 1.97,0 2.98,0c24.57,-0.21 47.73,-8.07 65.52,-25.56c4.14,-4.28 7.63,-8.74 10.85,-13.73c1.34,-1.9 1.34,-1.9 3.34,-2.9c0.77,-1.68 1.52,-3.37 2.22,-5.09c0.69,-1.7 1.46,-3.36 2.24,-5.02c6.11,-13.28 8.86,-26.26 9.04,-40.89c0.03,-1.41 0.03,-1.41 0.06,-2.86c-0.06,-5.97 -1.2,-10.51 -3.62,-15.96c-1.08,-2.5 -1.61,-4.87 -2,-7.55c-0.55,-3.75 -1.59,-5.68 -3.94,-8.63c-0.62,-1.55 -0.62,-1.55 -1.25,-3.12c-1.72,-4.25 -4.35,-7.76 -7.03,-11.45c-4.72,-6.67 -4.72,-6.67 -4.72,-9.43c-0.66,0 -1.32,0 -2,0c-0.06,-0.62 -0.12,-1.24 -0.19,-1.87c-0.4,-1.06 -0.4,-1.06 -0.81,-2.13c-1.66,-0.68 -3.33,-1.34 -5,-2c-1.64,-1.11 -3.25,-2.28 -4.81,-3.5c-0.79,-0.61 -1.58,-1.22 -2.4,-1.84c-0.59,-0.55 -1.18,-1.1 -1.79,-1.66c0,-0.66 0,-1.32 0,-2z" fill="#FE7304" id="svg_8"/>
  <path d="m791,521c2.38,0.25 2.38,0.25 5,1c1.31,2.06 1.31,2.06 2,4c0.66,0 1.32,0 2,0c0.41,1.18 0.82,2.35 1.25,3.56c1.05,2.84 2.22,5.37 3.81,7.94c1.81,3.03 2.72,5.87 3.45,9.31c0.42,1.86 0.96,3.68 1.53,5.5c2.86,10.98 1.93,25.46 -3.59,35.51c-1.72,2.49 -3.54,4.83 -5.45,7.18c-0.36,0.53 -0.72,1.05 -1.1,1.6c-5.65,8.09 -13.06,14.68 -20.09,21.55c-9.09,8.9 -17.6,17.79 -24.25,28.73c-0.66,1.06 -1.31,2.13 -1.99,3.24c-1.3,2.39 -2.11,4.23 -2.57,6.88c-0.66,0 -1.32,0 -2,0c-0.34,1.36 -0.34,1.36 -0.69,2.75c-1.26,4.41 -3.07,8.55 -4.87,12.77c-1.95,4.72 -3.72,9.51 -5.47,14.31c-1.87,5.07 -1.87,5.07 -2.97,6.17c-0.37,1.78 -0.7,3.58 -1,5.38c-0.51,3 -1.03,5.72 -2,8.62c-0.66,0 -1.32,0 -2,0c-0.17,0.53 -0.34,1.07 -0.52,1.62c-1.91,5.9 -4.12,11.64 -6.48,17.38c-0.66,0 -1.32,0 -2,0c-0.37,1.02 -0.37,1.02 -0.75,2.06c-4.93,11.64 -12.4,21.06 -21.25,29.94c-0.81,0.82 -1.62,1.64 -2.46,2.49c-11.07,10.94 -21.53,18.72 -35.54,25.51c-1.08,0.54 -2.17,1.09 -3.28,1.64c-7.32,3.65 -14.62,5.51 -22.72,6.36c0,0.66 0,1.32 0,2c-18.71,2.68 -38.39,3.88 -57,0c-1.47,-0.29 -1.47,-0.29 -2.98,-0.59c-17.17,-3.83 -34.43,-12.23 -49.52,-21.16c-17.93,-10.43 -36.18,-18.85 -56.5,-23.25c-0.76,-0.18 -1.52,-0.35 -2.31,-0.53c-5.95,-1.3 -11.57,-1.76 -17.66,-1.74c-0.92,0 -1.84,0 -2.79,0c-1.93,0 -3.87,0 -5.8,0.01c-2.91,0.01 -5.81,0 -8.71,-0.01c-15.87,-0.02 -31.15,1.32 -46.69,4.59c-10.16,1.88 -20.5,1.84 -30.79,1.81c-1.89,0 -1.89,0 -3.82,0.01c-17.37,-0.02 -32.86,-4.43 -47.43,-14.14c0,-0.66 0,-1.32 0,-2c6.01,0.49 11.45,1.55 17.23,3.28c16.39,4.25 33.12,0.89 49.48,-1.75c4.76,-0.77 9.52,-1.49 14.29,-2.22c0.76,-0.12 1.51,-0.24 2.29,-0.36c47.9,-7.35 89.45,3.77 130.96,27.24c16.66,9.39 33.83,15.76 52.64,19.23c3.11,0.58 3.11,0.58 4.99,1.1c28.75,6.48 62.69,-5.17 86.93,-19.96c18.89,-12.52 33.8,-29.02 45,-48.62c0.34,-0.59 0.68,-1.18 1.02,-1.78c6.83,-12.43 11.31,-25.89 15.84,-39.27c3.51,-10.31 7.53,-20.12 12.33,-29.89c0.4,-0.84 0.81,-1.68 1.22,-2.54c8.96,-18.45 21.36,-31.99 36.88,-45.26c9.87,-8.44 16.01,-17.79 19.9,-30.2c0.36,-1.06 0.73,-2.12 1.1,-3.22c1.16,-4.87 1.32,-9.48 1.34,-14.47c0,-0.97 0.01,-1.95 0.01,-2.95c-0.11,-6.87 -1.03,-11.86 -4.36,-17.92c-1.32,-2.96 -1.28,-5.24 -1.09,-8.44z" fill="#060606" id="svg_9"/>
  <path d="m425,508c0,0.66 0,1.32 0,2c0.7,0.23 1.4,0.45 2.13,0.69c4.9,2.24 8.85,5.23 10.87,10.31c0.99,6.74 0.05,12.48 -4,18c-4.86,5.18 -9.91,8.2 -17.13,8.69c-6.4,-0.1 -9.92,-3.1 -14.66,-7.14c-4.16,-4.8 -4.69,-9.95 -4.51,-16.1c0.72,-5.9 3.98,-9.48 8.17,-13.39c5.87,-4.4 12.12,-3.69 19.13,-3.06z" fill="#FCD0AC" id="svg_10"/>
  <path d="m673,346c5.22,2.13 8.29,5.6 10.81,10.56c1.19,3.44 1.19,3.44 1.19,7.44c0.66,0 1.32,0 2,0c2.8,6.65 5.09,13.29 7,20.25c0.52,1.86 1.04,3.71 1.56,5.57c0.25,0.89 0.49,1.78 0.75,2.7c0.89,3.21 1.82,6.41 2.75,9.61c1.14,3.94 2.21,7.9 3.23,11.88c0.22,0.87 0.44,1.73 0.67,2.63c0.44,1.71 0.87,3.42 1.29,5.14c0.2,0.78 0.4,1.56 0.6,2.36c0.26,1.05 0.26,1.05 0.53,2.11c0.56,1.98 0.56,1.98 2.62,3.75c0.94,2.7 1.81,5.38 2.63,8.13c0.22,0.75 0.45,1.5 0.69,2.28c0.57,1.86 1.12,3.73 1.68,5.59c-1.98,0.5 -1.98,0.5 -4,1c-0.31,-0.51 -0.63,-1.02 -0.95,-1.54c-0.43,-0.69 -0.86,-1.38 -1.3,-2.08c-0.46,-0.74 -0.92,-1.48 -1.39,-2.24c-1.08,-1.71 -2.24,-3.37 -3.42,-5.01c-2.59,-4.18 -4.24,-8.53 -5.94,-13.13c-0.34,-0.92 -0.68,-1.83 -1.04,-2.77c-1,-2.74 -2,-5.48 -2.96,-8.23c-0.22,-0.63 -0.44,-1.26 -0.67,-1.9c-2.22,-6.47 -3.97,-13.05 -5.7,-19.66c-4.83,-18.69 -4.83,-18.69 -11.92,-36.6c-1.02,-2.65 -1,-5.04 -0.71,-7.84z" fill="#0F0F0F" id="svg_11"/>
  <path d="m120,999c4.16,0.57 6.88,1.95 10.38,4.25c1.42,0.94 1.42,0.94 2.88,1.9c3.3,2.23 6.56,4.45 9.74,6.85c0,0.33 0,0.66 0,1c-10.56,0 -21.12,0 -32,0c2.88,-5.04 5.61,-9.39 9,-14z" fill="#404040" id="svg_12"/>
  <path d="m381,521c0.33,0 0.66,0 1,0c-0.06,1.63 -0.15,3.25 -0.25,4.88c-0.07,1.35 -0.07,1.35 -0.14,2.74c-0.61,2.38 -0.61,2.38 -2.66,3.7c-0.64,0.22 -1.29,0.45 -1.95,0.68c0.01,0.67 0.02,1.33 0.04,2.02c0.04,4.74 -0.03,9.39 -0.54,14.11c-1.1,11.01 -0.7,22.1 0.28,33.11c0.26,3.27 0.3,6.48 0.22,9.76c-8.44,-12.66 -6.59,-35.3 -3.82,-49.55c1.7,-7.57 4.13,-14.59 7.82,-21.45z" fill="#FBA938" id="svg_13"/>
  <path d="m495,754c9.56,4.72 19.04,9.55 28.44,14.59c4.45,2.36 8.9,4.5 13.56,6.41c-0.99,0.33 -1.98,0.66 -3,1c0,0.66 0,1.32 0,2c-3.49,-1.34 -6.77,-2.86 -10.06,-4.61c-0.96,-0.5 -1.92,-1.01 -2.9,-1.53c-1,-0.53 -2.01,-1.06 -3.04,-1.61c-8.23,-4.33 -16.47,-8.52 -25,-12.25c0.66,-0.33 1.32,-0.66 2,-1c0,-0.99 0,-1.98 0,-3z" fill="#252526" id="svg_14"/>
  <path d="m494.25,660.88c1.08,0.02 2.16,0.04 3.27,0.05c1.23,0.04 1.23,0.04 2.48,0.08c-12.26,8.17 -33.94,6.1 -47.75,3.63c-2.25,-0.63 -2.25,-0.63 -5.25,-2.63c1.1,0.04 2.2,0.08 3.33,0.12c4.09,0.15 8.17,0.28 12.26,0.41c1.77,0.06 3.53,0.12 5.3,0.19c2.54,0.09 5.08,0.17 7.63,0.25c1.18,0.05 1.18,0.05 2.39,0.1c6.01,0.16 10.38,-2.33 16.34,-2.2z" fill="#FC8F31" id="svg_15"/>
  <path d="m501,469c4.95,0.99 4.95,0.99 10,2c-0.33,1.32 -0.66,2.64 -1,4c0.99,0 1.98,0 3,0c0,0.66 0,1.32 0,2c1.98,0 3.96,0 6,0c-0.33,1.65 -0.66,3.3 -1,5c0.66,0.33 1.32,0.66 2,1c0.85,2.07 0.85,2.07 1.63,4.56c0.39,1.24 0.39,1.24 0.78,2.51c0.2,0.63 0.39,1.27 0.59,1.93c-2.78,-1.39 -3.55,-3.3 -5,-6c0,-0.66 0,-1.32 0,-2c-0.66,0 -1.32,0 -2,0c-0.06,-0.62 -0.12,-1.24 -0.19,-1.87c-0.4,-1.06 -0.4,-1.06 -0.81,-2.13c-1.66,-0.68 -3.33,-1.34 -5,-2c-1.64,-1.11 -3.25,-2.28 -4.81,-3.5c-0.79,-0.61 -1.58,-1.22 -2.4,-1.84c-0.59,-0.55 -1.18,-1.1 -1.79,-1.66c0,-0.66 0,-1.32 0,-2z" fill="#FE8701" id="svg_16"/>
  <path d="m438.13,747.88c2.04,0.01 4.08,0.02 6.11,0.03c4.92,0.02 9.84,0.05 14.77,0.1c0,0.33 0,0.65 0,1c-1.78,0.03 -1.78,0.03 -3.58,0.07c-4.4,0.1 -8.79,0.2 -13.19,0.3c-1.89,0.04 -3.79,0.08 -5.69,0.12c-2.74,0.06 -5.47,0.12 -8.21,0.19c-0.84,0.02 -1.69,0.03 -2.56,0.05c-4.36,0.11 -8.47,0.47 -12.78,1.27c-1.57,0.13 -3.15,0.24 -4.74,0.31c-1.25,0.06 -1.25,0.06 -2.54,0.13c-0.85,0.04 -1.71,0.08 -2.59,0.12c-0.88,0.04 -1.76,0.08 -2.66,0.13c-2.16,0.1 -4.31,0.2 -6.47,0.31c3.57,-2.38 6.6,-2.69 10.75,-3.12c0.78,-0.09 1.57,-0.17 2.38,-0.26c10.32,-0.99 20.65,-0.84 31,-0.75z" fill="#272728" id="svg_17"/>
  <path d="m381,521c0.33,0 0.66,0 1,0c-0.06,1.63 -0.15,3.25 -0.25,4.88c-0.05,0.9 -0.09,1.8 -0.14,2.74c-0.2,0.78 -0.4,1.57 -0.61,2.38c-2.04,1.15 -2.04,1.15 -4,2c0.01,0.64 0.02,1.27 0.04,1.93c0.07,7.63 -0.41,15.15 -1.04,22.76c-0.1,1.19 -0.19,2.38 -0.29,3.6c-0.23,2.91 -0.47,5.81 -0.71,8.71c-0.33,0 -0.66,0 -1,0c-0.78,-36.05 -0.78,-36.05 7,-49z" fill="#FEA41F" id="svg_18"/>
  <path d="m495,754c7.92,3.96 7.92,3.96 16,8c0,0.99 0,1.98 0,3c-4.33,-0.64 -7.87,-2.19 -11.81,-4.06c-1.16,-0.55 -2.33,-1.1 -3.52,-1.66c-1.32,-0.63 -1.32,-0.63 -2.67,-1.28c0.66,-0.33 1.32,-0.66 2,-1c0,-0.99 0,-1.98 0,-3z" fill="#1D1D1D" id="svg_19"/>
  <path d="m713,446c1.5,1.31 1.5,1.31 3,3c0,0.99 0,1.98 0,3c0.99,0 1.98,0 3,0c1.61,2.19 1.61,2.19 3.19,5c0.53,0.93 1.06,1.86 1.6,2.81c0.4,0.72 0.8,1.45 1.21,2.19c-3,0 -3,0 -4.9,-1.57c-10.1,-10.49 -10.1,-10.49 -10.1,-13.43c0.99,-0.33 1.98,-0.66 3,-1z" fill="#303030" id="svg_20"/>
  <path d="m409,509c0.66,0.33 1.32,0.66 2,1c-1.1,1.3 -2.2,2.59 -3.31,3.88c-0.62,0.71 -1.23,1.43 -1.87,2.17c-1.82,1.95 -1.82,1.95 -4.82,3.95c-0.4,3.18 -0.4,3.18 -0.25,6.81c0.02,1.23 0.03,2.45 0.05,3.71c0.17,2.94 0.52,5.62 1.2,8.48c-2,-1 -2,-1 -3.13,-3.44c-1.42,-5.81 -2.14,-11.82 0.69,-17.31c2.48,-3.77 5.88,-6.52 9.44,-9.25z" fill="#FEC477" id="svg_21"/>
  <path d="m272,451c0.66,0.33 1.32,0.66 2,1c-3.12,3.17 -6.24,6.34 -9.38,9.5c-0.88,0.91 -1.77,1.81 -2.69,2.75c-0.85,0.85 -1.7,1.71 -2.58,2.59c-0.78,0.8 -1.57,1.6 -2.38,2.42c-1.97,1.74 -1.97,1.74 -3.97,1.74c0,0.66 0,1.32 0,2c-0.66,-0.33 -1.32,-0.66 -2,-1c6.47,-7.6 13.2,-14.76 21,-21z" fill="#D7D8D9" id="svg_22"/>
  <path d="m770,602c0,3 0,3 -1.53,4.85c-0.7,0.68 -1.4,1.36 -2.12,2.06c-0.76,0.74 -1.51,1.48 -2.3,2.25c-0.8,0.77 -1.6,1.54 -2.43,2.34c-1.57,1.53 -3.14,3.06 -4.71,4.59c-0.7,0.68 -1.4,1.36 -2.12,2.06c-1.97,1.93 -1.97,1.93 -3.79,4.85c-0.66,-0.33 -1.32,-0.66 -2,-1c6.14,-8.38 13.26,-15.13 21,-22z" fill="#282829" id="svg_23"/>
  <path d="m290,730c3.97,0.7 7.27,2.63 10.75,4.56c0.9,0.5 0.9,0.5 1.82,1c1.48,0.81 2.96,1.62 4.43,2.44c-1.84,1.05 -1.84,1.05 -4,2c-3.13,-0.92 -5.27,-2.18 -8,-4c0,-0.66 0,-1.32 0,-2c-0.64,-0.1 -1.28,-0.21 -1.94,-0.31c-0.68,-0.23 -1.36,-0.46 -2.06,-0.69c-0.33,-0.99 -0.66,-1.98 -1,-3z" fill="#383737" id="svg_24"/>
  <path d="m375,536c1.16,3.55 0.92,6.56 0.56,10.25c-0.15,1.62 -0.15,1.62 -0.31,3.27c-0.08,0.82 -0.16,1.64 -0.25,2.48c-0.66,0 -1.32,0 -2,0c0,7.26 0,14.52 0,22c-0.33,0 -0.66,0 -1,0c-0.62,-25.76 -0.62,-25.76 3,-38z" fill="#FDC477" id="svg_25"/>
  <path d="m437,519c3,2 3,2 3.5,4.29c0.16,7.34 -1.34,12.33 -6.5,17.71c-2.2,1.25 -2.2,1.25 -4,2c0.9,-1.02 0.9,-1.02 1.81,-2.06c5.43,-7.29 5.58,-13.05 5.19,-21.94z" fill="#FEAB2F" id="svg_26"/>
  <path d="m457,462c4.5,-0.07 9,-0.13 13.51,-0.16c1.53,-0.02 3.06,-0.04 4.59,-0.07c2.2,-0.03 4.4,-0.05 6.61,-0.06c0.68,-0.02 1.37,-0.03 2.07,-0.05c4.78,0 4.78,0 7.18,1.86c0.34,0.49 0.68,0.98 1.04,1.48c-1.21,-0.16 -2.41,-0.33 -3.65,-0.5c-6.3,-0.7 -12.58,-0.61 -18.91,-0.56c-1.8,0 -1.8,0 -3.64,0.01c-2.93,0.01 -5.87,0.03 -8.8,0.05c0,-0.66 0,-1.32 0,-2z" fill="#F7F3E0" id="svg_27"/>
  <path d="m377,592c0.66,0 1.32,0 2,0c0.27,0.82 0.53,1.64 0.8,2.48c0.36,1.08 0.71,2.16 1.08,3.27c0.34,1.07 0.69,2.13 1.05,3.23c0.97,2.94 0.97,2.94 2.23,5.27c0.84,1.75 0.84,1.75 0.47,4c-0.21,0.58 -0.42,1.16 -0.63,1.75c-3.88,-6.29 -7,-12.49 -7,-20z" fill="#F8A938" id="svg_28"/>
  <path d="m784,511c2,0 2,0 3.69,1.68c0.62,0.72 1.24,1.45 1.87,2.2c0.62,0.71 1.24,1.43 1.88,2.17c1.56,1.95 1.56,1.95 2.56,3.95c-0.99,0 -1.98,0 -3,0c-0.33,1.32 -0.66,2.64 -1,4c-1,-2.14 -2,-4.29 -3,-6.44c-0.84,-1.79 -0.84,-1.79 -1.69,-3.62c-1.31,-2.94 -1.31,-2.94 -1.31,-3.94z" fill="#2F2F30" id="svg_29"/>
  <path d="m485,465c5.19,-0.21 9.13,0.41 14,2c-1.67,1.55 -1.67,1.55 -4,3c-2.58,-0.14 -2.58,-0.14 -5.25,-0.81c-0.89,-0.22 -1.78,-0.43 -2.7,-0.65c-0.68,-0.18 -1.35,-0.36 -2.05,-0.54c0,-0.99 0,-1.98 0,-3z" fill="#FE990B" id="svg_30"/>
  <path d="m522,771c5.82,-0.6 9.92,1.47 15,4c-0.99,0.33 -1.98,0.66 -3,1c0,0.66 0,1.32 0,2c-4.31,-1.57 -8.06,-3.68 -12,-6c0,-0.33 0,-0.66 0,-1z" fill="#201F1F" id="svg_31"/>
  <path d="m669,339c3.8,1.49 5.61,3.76 8,7c-0.33,0.66 -0.66,1.32 -1,2c-0.99,-0.66 -1.98,-1.32 -3,-2c-0.33,1.32 -0.66,2.64 -1,4c-2.57,-3.85 -2.55,-6.43 -3,-11z" fill="#2A2B2B" id="svg_32"/>
  <path d="m540,638c0.33,0.99 0.66,1.98 1,3c-3.17,3.44 -5.6,5.45 -10,7c-0.66,0.66 -1.32,1.32 -2,2c-0.99,-0.33 -1.98,-0.66 -3,-1c4.62,-3.63 9.24,-7.26 14,-11z" fill="#FEECC7" id="svg_33"/>
  <path d="m560,611c1.02,3.17 1.1,3.77 -0.31,7c-0.56,0.99 -1.12,1.98 -1.69,3c-0.29,0.74 -0.58,1.48 -0.88,2.25c-1.57,2.45 -3.41,2.89 -6.12,3.75c1.69,-3.53 3.65,-6.88 5.62,-10.25c0.64,-1.08 1.27,-2.16 1.92,-3.27c0.72,-1.23 0.72,-1.23 1.46,-2.48z" fill="#FDE8C3" id="svg_34"/>
  <path d="m381,521c0.33,0 0.66,0 1,0c-0.07,3.4 -0.24,6.68 -1,10c-2.56,2.13 -2.56,2.13 -5,3c0.45,-1.42 0.91,-2.83 1.37,-4.25c0.39,-1.18 0.39,-1.18 0.78,-2.39c0.8,-2.23 1.75,-4.27 2.85,-6.36z" fill="#FEB24D" id="svg_35"/>
  <path d="m558,513c3,1 3,1 4.39,3.11c0.43,0.87 0.86,1.74 1.3,2.64c0.43,0.86 0.87,1.72 1.32,2.61c1.03,2.75 1.18,4.73 0.99,7.64c-2.57,-2.57 -2.54,-4.48 -3,-8c-0.66,0 -1.32,0 -2,0c-0.99,-2.64 -1.98,-5.28 -3,-8z" fill="#FEE8C4" id="svg_38"/>
  <path d="m251,469c0.33,0.99 0.66,1.98 1,3c-1.65,2.7 -1.65,2.7 -3.94,5.69c-0.75,0.99 -1.5,1.99 -2.27,3.01c-0.59,0.76 -1.18,1.52 -1.79,2.3c-0.75,-1.67 -0.75,-1.67 -1,-4c1.65,-2.58 1.65,-2.58 3.94,-5.25c1.12,-1.34 1.12,-1.34 2.27,-2.7c0.59,-0.68 1.18,-1.35 1.79,-2.05z" fill="#4A4A4B" id="svg_39"/>
  <path d="m690,372c2,1 2,1 3.07,3.51c0.35,1.05 0.7,2.1 1.06,3.18c0.35,1.03 0.7,2.07 1.07,3.13c0.81,3.2 0.95,5.9 0.8,9.18c-1.87,-3.41 -2.99,-6.91 -4.12,-10.62c-0.36,-1.15 -0.71,-2.3 -1.08,-3.48c-0.8,-2.9 -0.8,-2.9 -0.8,-4.9z" fill="#2E2E2E" id="svg_40"/>
  <path d="m303,739c2.97,0.33 5.94,0.66 9,1c-0.99,1.32 -1.98,2.64 -3,4c-2,-1 -4,-2 -6,-3c0,-0.66 0,-1.32 0,-2z" fill="#1E1D1D" id="svg_42"/>
  <path d="m622,308c2.97,0 5.94,0 9,0c0.66,1.32 1.32,2.64 2,4c-3.63,-0.66 -7.26,-1.32 -11,-2c0,-0.66 0,-1.32 0,-2z" fill="#383737" id="svg_43"/>
  <path d="m713,446c2.5,2.17 3.44,3.73 4,7c-3.24,-0.56 -4.93,-1.41 -7,-4c0,-0.66 0,-1.32 0,-2c0.99,-0.33 1.98,-0.66 3,-1z" fill="#232424" id="svg_46"/>
  <path d="m145,374c1.18,3.55 0.73,4.94 -0.25,8.5c-0.25,0.96 -0.51,1.92 -0.77,2.91c-0.98,2.59 -1.87,3.83 -3.98,5.59c1.82,-13.82 1.82,-13.82 5,-17z" fill="#333233" id="svg_47"/>
  <path d="m281,722c4.79,0.81 6.14,3.26 9,7c-1.32,0 -2.64,0 -4,0c-1.48,-1.53 -1.48,-1.53 -2.75,-3.5c-0.43,-0.65 -0.86,-1.3 -1.3,-1.97c-0.47,-0.76 -0.47,-0.76 -0.95,-1.53z" fill="#383838" id="svg_48"/>
  <path d="m395,499c0.33,1.32 0.66,2.64 1,4c-0.96,0.37 -0.96,0.37 -1.94,0.75c-2.25,1.07 -2.25,1.07 -2.81,3.38c-0.08,0.61 -0.17,1.23 -0.25,1.87c-0.66,0 -1.32,0 -2,0c1.37,-4 3.26,-6.8 6,-10z" fill="#FDB344" id="svg_49"/>
  <path d="m516,389c0.99,0.66 1.98,1.32 3,2c-1.12,1.01 -2.25,2 -3.38,3c-0.62,0.56 -1.25,1.11 -1.89,1.69c-1.73,1.31 -1.73,1.31 -3.73,1.31c1.05,-2.62 1.65,-3.79 4.12,-5.25c0.62,-0.25 1.24,-0.5 1.88,-0.75c0,-0.66 0,-1.32 0,-2z" fill="#4B4B4B" id="svg_50"/>
  <path d="m605,310c0,0.33 0,0.66 0,1c-1.77,0.34 -3.54,0.67 -5.31,1c-1.48,0.28 -1.48,0.28 -2.99,0.56c-2.7,0.44 -2.7,0.44 -5.7,0.44c4.4,-4.82 8.01,-3.88 14,-3z" fill="#52514F" id="svg_51"/>
  <path d="m400,515c0.66,0 1.32,0 2,0c-0.31,0.54 -0.61,1.08 -0.93,1.64c-1.23,2.7 -1.71,5.18 -2.2,8.11c-0.16,0.98 -0.33,1.97 -0.5,2.98c-0.12,0.75 -0.25,1.5 -0.37,2.27c-0.33,0 -0.66,0 -1,0c-0.37,-9.53 -0.37,-9.53 2,-14c0.33,-0.33 0.66,-0.66 1,-1z" fill="#FEA218" id="svg_52"/>
  <path d="m578,317c0.99,0.66 1.98,1.32 3,2c-2.97,1.65 -5.94,3.3 -9,5c0,-0.99 0,-1.98 0,-3c3,-2.19 3,-2.19 6,-4z" fill="#4B4B4B" id="svg_54"/>
  <path d="m334.19,423.88c0.9,0.02 1.8,0.04 2.73,0.05c0.69,0.03 1.37,0.05 2.08,0.08c0,0.33 0,0.65 0,1c-1.41,0.36 -2.83,0.71 -4.25,1.06c-0.79,0.19 -1.58,0.39 -2.39,0.6c-2.46,0.35 -4.01,0.1 -6.36,-0.66c3.32,-2.21 4.35,-2.23 8.19,-2.13z" fill="#888786" id="svg_56"/>
  <path d="m646,316c3.83,1.45 5.12,3.43 7,7c-2.37,-0.69 -2.37,-0.69 -5,-2c-1.31,-2.62 -1.31,-2.62 -2,-5z" fill="#4E4C4C" id="svg_57"/>
  <path d="m529,481c2.64,0.66 5.28,1.32 8,2c0,1.32 0,2.64 0,4c-3.37,-1.44 -5.51,-3.33 -8,-6z" fill="#FADFBD" id="svg_58"/>
  <path d="m636,312c1.98,0 3.96,0 6,0c0.66,1.32 1.32,2.64 2,4c-2.35,-0.6 -4.69,-1.27 -7,-2c-0.33,-0.66 -0.66,-1.32 -1,-2z" fill="#393738" id="svg_59"/>
  <path d="m389,619c3.16,1.37 3.99,1.99 6,5c-0.33,0.99 -0.66,1.98 -1,3c-5,-5.75 -5,-5.75 -5,-8z" fill="#F17719" id="svg_60"/>
  <path d="m495,754c0.99,0.33 1.98,0.66 3,1c0.33,1.65 0.66,3.3 1,5c-1.98,-0.66 -3.96,-1.32 -6,-2c0.66,-0.33 1.32,-0.66 2,-1c0,-0.99 0,-1.98 0,-3z" fill="#171817" id="svg_62"/>
  <path d="m564,602c0.96,3.84 0.92,5.32 0,9c-0.99,0 -1.98,0 -3,0c0.99,-2.97 1.98,-5.94 3,-9z" fill="#FCE1B8" id="svg_63"/>
  <path d="m388,509c1,2 1,2 0.25,4.56c-1.25,2.44 -1.25,2.44 -4.25,3.44c1.12,-2.97 2.22,-5.33 4,-8z" fill="#FEB043" id="svg_64"/>
  <path d="m540,490c2.48,0.49 2.48,0.49 5,1c0,0.99 0,1.98 0,3c0.66,0 1.32,0 2,0c-0.33,0.99 -0.66,1.98 -1,3c-1.98,-2.31 -3.96,-4.62 -6,-7z" fill="#FCE5C8" id="svg_65"/>
  <path d="m569,325c-1.39,3.37 -2.98,4.99 -6,7c0.63,-3.64 1.85,-7 6,-7z" fill="#4C4B4C" id="svg_66"/>
 </g>
</svg>